# xmcd CD database file
# Copyright (C) 1993-1998 Ti Kan
#
# Track frame offsets:
#  150
#  10660
#  23840
#  36635
#  50260
#  67625
#  83575
#  97135
#  108832
#  120787
#  134957
#  149755
#  157272
#  169192
#  176967
#  189655
#  204090
#  215980
#  228797
#  242185
#  261202
#  273882
#
# Disc length: 3887 seconds
#
# Revision: 1
# Processed by: cddbd v1.4b41PL1 Copyright (c) Steve Scherf et al.
# Submitted via: KiC 2.1 - (C) 1996-1998 Alwin Hoogerdijk
#
DISCID=3f0f2d16
DTITLE=Johnny Adams - Reconsider Me
DYEAR=1900
DGENRE=
TTITLE0=I Won't Cry
TTITLE1=A Losing Battle
TTITLE2=Release Me
TTITLE3=You Made A New Man Out Of Me
TTITLE4=Reconsider Me
TTITLE5=If I Could Just See You One More Time
TTITLE6=I Can't Be All Bad
TTITLE7=In A Moment Of Weakness
TTITLE8=Proud Woman
TTITLE9=Real Live Living Hurting Man
TTITLE10=Georgia Morning Dew
TTITLE11=Living On Your Love
TTITLE12=Lonley Man
TTITLE13=Too Much Pride
TTITLE14=I Want To Walk Throught This Life With You
TTITLE15=Down By The River
TTITLE16=I Don't Worry Myself
TTITLE17=I Have No One
TTITLE18=South Side Of Soul Street
TTITLE19=Something Worth Living For
TTITLE20=You Can Depend On Me
TTITLE21=Let Me Be Myself
EXTD=
EXTT0=
EXTT1=
EXTT2=
EXTT3=
EXTT4=
EXTT5=
EXTT6=
EXTT7=
EXTT8=
EXTT9=
EXTT10=
EXTT11=
EXTT12=
EXTT13=
EXTT14=
EXTT15=
EXTT16=
EXTT17=
EXTT18=
EXTT19=
EXTT20=
EXTT21=
PLAYORDER=
